<svg xmlns="http://www.w3.org/2000/svg" xmlns:xlink="http://www.w3.org/1999/xlink" width="1090" height="1081.093" viewBox="0 0 1090 1081.093"><defs><style>.a{fill:url(#a);}.b{clip-path:url(#b);}.c{fill:url(#d);}</style><linearGradient id="a" x1="0.5" y1="0.889" x2="0.5" y2="0.21" gradientUnits="objectBoundingBox"><stop offset="0" stop-color="#1fa76e" stop-opacity="0"/><stop offset="1" stop-color="#1fa76e"/></linearGradient><clipPath id="b"><rect class="a" width="1090" height="1081.093" transform="translate(1824.89)"/></clipPath><linearGradient id="d" x1="0.934" y1="0.63" x2="0.335" y2="0.534" gradientUnits="objectBoundingBox"><stop offset="0" stop-color="#1fa76e" stop-opacity="0.49"/><stop offset="1" stop-color="#1fa76e"/></linearGradient></defs><g class="b" transform="translate(-1824.89)"><g transform="translate(-1700.359 -22.795)"><path class="a" d="M2616.865,8.986s-271.738,188.173-67.6,584.385c54.911,106.581,99.562,206.363,103.235,277.537,9.973,193.138-190.6,269.085-190.6,269.085l-798.23-26.852L1643.8-6.493Z" transform="translate(1881.445 6.493)"/><path class="c" d="M-1752.11,1080H-1795.2l-676,2.012V.022h872.284V0h118.339s-89.551,86.9-74.563,378.788c7.659,149.151,50.635,542.478,51.939,648.485,1.243,101.02-92.277,26.125-109.515,78.788-10.259,31.343-16.26-26.062-28.485-26.061C-1670.982,1080-1752.11,1080-1752.11,1080Z" transform="translate(5996.449 22.772)"/></g></g></svg>