<svg width="152" height="35" viewBox="0 0 152 35" fill="none" xmlns="http://www.w3.org/2000/svg">
<g clip-path="url(#clip0_64_7893)">
<path d="M37.0882 28.0124V1.13807C37.0881 1.01969 37.1301 0.905131 37.2066 0.81482C37.2832 0.724509 37.3893 0.664311 37.5061 0.644948L40.9556 0.0747553C41.0271 0.0628893 41.1004 0.0667424 41.1704 0.0860631C41.2403 0.105384 41.3052 0.139702 41.3605 0.186629C41.4158 0.233555 41.4602 0.291968 41.4907 0.357804C41.5212 0.42364 41.5369 0.495318 41.5369 0.567863V9.50246C42.0951 9.31351 42.6666 9.16608 43.2465 9.06135C43.8828 8.93947 44.529 8.87729 45.1768 8.87563C46.4876 8.8348 47.7935 9.05351 49.0195 9.51918C49.9744 9.9024 50.816 10.5226 51.4647 11.3212C52.099 12.139 52.5449 13.0869 52.7704 14.097C53.0391 15.2791 53.1688 16.4885 53.1567 17.7006V28.0115C53.1567 28.0771 53.1438 28.1422 53.1186 28.2028C53.0935 28.2634 53.0566 28.3185 53.0102 28.3649C52.9638 28.4113 52.9086 28.4481 52.848 28.4732C52.7873 28.4983 52.7223 28.5112 52.6566 28.5111H49.2067C49.141 28.5111 49.0761 28.4982 49.0155 28.4731C48.9549 28.448 48.8998 28.4112 48.8534 28.3648C48.807 28.3184 48.7702 28.2633 48.7451 28.2027C48.72 28.1421 48.707 28.0771 48.707 28.0115V18.3999C48.7188 17.5193 48.651 16.6393 48.5046 15.7709C48.4062 15.1439 48.1811 14.5435 47.8429 14.0064C47.5426 13.5582 47.1129 13.2119 46.6111 13.0137C45.9994 12.7889 45.3504 12.6829 44.699 12.7012C44.0938 12.7036 43.4903 12.7658 42.8974 12.8869C42.4381 12.972 41.9839 13.0825 41.5369 13.218V28.0147C41.5369 28.1473 41.4843 28.2743 41.3906 28.368C41.2969 28.4617 41.1698 28.5144 41.0373 28.5144H37.5873C37.5216 28.5143 37.4564 28.5012 37.3957 28.476C37.335 28.4507 37.2799 28.4137 37.2335 28.367C37.1872 28.3204 37.1504 28.2651 37.1255 28.2042C37.1006 28.1434 37.0879 28.0782 37.0882 28.0124Z" fill="#042818"/>
<path d="M57.0287 18.6418C56.9983 17.1246 57.2539 15.6152 57.7823 14.1926C58.2278 13.0075 58.9097 11.9254 59.7864 11.012C60.5979 10.1808 61.5751 9.52952 62.6545 9.10035C63.7065 8.67666 64.8297 8.4582 65.9638 8.45679C68.6111 8.45679 70.6764 9.27803 72.1598 10.9205C73.6431 12.563 74.3847 15.0143 74.3844 18.2745C74.3844 18.5197 74.3783 18.7955 74.3663 19.102V19.1113C74.3563 19.3319 74.2616 19.5401 74.1018 19.6926C73.942 19.845 73.7295 19.9299 73.5086 19.9294H61.6228C61.6424 20.6059 61.7973 21.2717 62.0783 21.8874C62.3593 22.5032 62.7608 23.0564 63.2591 23.5145C64.2271 24.3602 65.6304 24.783 67.4691 24.783C68.4635 24.7918 69.456 24.6933 70.4292 24.4891C70.9573 24.3773 71.4792 24.2378 71.9926 24.0712C72.0613 24.0482 72.1342 24.0406 72.2061 24.0486C72.2781 24.0567 72.3474 24.0804 72.4093 24.118C72.4712 24.1556 72.5241 24.2063 72.5644 24.2664C72.6047 24.3266 72.6314 24.3948 72.6427 24.4663L73.0717 27.1218C73.0897 27.2353 73.0683 27.3515 73.011 27.451C72.9537 27.5505 72.864 27.6274 72.7569 27.6688C72.574 27.7403 72.3624 27.8138 72.1222 27.8894C71.6387 28.038 71.1477 28.1607 70.6512 28.2571C70.0996 28.3673 69.5051 28.4592 68.8677 28.5329C68.2203 28.6071 67.5692 28.644 66.9175 28.6434C65.4125 28.6759 63.9152 28.4201 62.5064 27.8898C61.3295 27.4377 60.2726 26.7205 59.4177 25.7939C58.598 24.8808 57.9836 23.8025 57.6161 22.6318C57.2125 21.3408 57.0143 19.9944 57.0287 18.6418ZM69.937 16.6563C69.94 16.0644 69.8533 15.4755 69.6798 14.9096C69.5236 14.3874 69.2677 13.9005 68.9262 13.4757C68.5964 13.0723 68.1823 12.746 67.7129 12.5197C67.1771 12.2746 66.5923 12.1551 66.0033 12.1705C65.3808 12.1565 64.7638 12.2887 64.2017 12.5563C63.7026 12.8016 63.2586 13.1457 62.8964 13.5677C62.5366 13.9919 62.2563 14.4777 62.069 15.0015C61.8739 15.5366 61.7382 16.0916 61.6646 16.6563H69.937Z" fill="#042818"/>
<path d="M89.8005 12.3961C89.7865 12.4656 89.7584 12.5315 89.718 12.5898C89.6776 12.6481 89.6257 12.6974 89.5655 12.735C89.5054 12.7725 89.4382 12.7973 89.3681 12.808C89.298 12.8186 89.2265 12.8148 89.1579 12.7969C88.8737 12.722 88.5412 12.6446 88.1605 12.5647C87.4153 12.4212 86.6576 12.3534 85.8988 12.3623C85.3745 12.3656 84.8515 12.4149 84.3358 12.5095C83.9446 12.5708 83.5577 12.6567 83.1773 12.7667V27.6526C83.1773 27.7906 83.1225 27.923 83.0249 28.0206C82.9273 28.1182 82.7949 28.1731 82.6568 28.1731H79.2491C79.1111 28.1731 78.9787 28.1182 78.8811 28.0206C78.7835 27.923 78.7286 27.7906 78.7286 27.6526V10.5904C78.7281 10.3747 78.7963 10.1645 78.9232 9.99017C79.05 9.8158 79.2291 9.6863 79.4344 9.6204C80.1532 9.39071 80.9904 9.17124 81.9459 8.96198C83.3546 8.66796 84.7908 8.52614 86.2298 8.53898C86.5239 8.53898 86.867 8.5574 87.2592 8.59424C87.6514 8.63108 88.0436 8.68013 88.4358 8.74143C88.8277 8.80334 89.2077 8.87686 89.5758 8.96198C89.7234 8.99665 89.8593 9.03025 89.9835 9.06275C90.1127 9.09681 90.2239 9.1792 90.2942 9.29291C90.3644 9.40663 90.3883 9.54297 90.3609 9.67379L89.8005 12.3961Z" fill="#042818"/>
<path d="M109.113 25.9629C109.113 29.0274 108.335 31.2705 106.778 32.6919C105.221 34.1134 102.838 34.8243 99.6275 34.8246C98.4758 34.8265 97.3261 34.728 96.1915 34.5302C95.3208 34.3808 94.4608 34.174 93.6173 33.9112C93.491 33.8713 93.3842 33.7858 93.3176 33.6714C93.2509 33.557 93.2293 33.4218 93.257 33.2923L93.8364 30.5797C93.8526 30.5053 93.8846 30.4353 93.9301 30.3743C93.9756 30.3133 94.0337 30.2627 94.1003 30.226C94.167 30.1893 94.2408 30.1673 94.3167 30.1616C94.3926 30.1558 94.4689 30.1663 94.5404 30.1924C95.1995 30.4233 95.8741 30.6072 96.5593 30.7427C97.5948 30.9452 98.648 31.0438 99.7032 31.037C101.492 31.037 102.767 30.6693 103.527 29.9338C104.288 29.1983 104.668 28.1075 104.667 26.6612V25.9257C104.104 26.1931 103.52 26.4144 102.921 26.5874C102.114 26.8195 101.278 26.9311 100.439 26.9185C99.2905 26.9324 98.1496 26.7329 97.0742 26.3302C96.0854 25.9572 95.1932 25.3666 94.4638 24.6019C93.7046 23.7825 93.1281 22.8112 92.7722 21.7524C92.3465 20.4789 92.1412 19.1421 92.1653 17.7995C92.1514 16.4848 92.3692 15.1778 92.8089 13.9387C93.2079 12.8094 93.8478 11.7805 94.6843 10.9233C95.5353 10.0701 96.5563 9.40563 97.6811 8.97313C98.9611 8.48978 100.321 8.25345 101.689 8.27664C103.069 8.27129 104.446 8.38205 105.807 8.60771C106.742 8.76651 107.576 8.93181 108.308 9.10361C108.539 9.15826 108.744 9.28923 108.891 9.47525C109.038 9.66128 109.117 9.89145 109.117 10.1284L109.113 25.9629ZM96.7218 17.8C96.7218 19.6883 97.1324 21.0672 97.9536 21.9367C98.3608 22.3676 98.855 22.7068 99.4034 22.9319C99.9518 23.1569 100.542 23.2626 101.134 23.2419C101.813 23.2467 102.489 23.1474 103.138 22.9475C103.678 22.7918 104.193 22.5571 104.664 22.2511V12.2866C104.345 12.2129 103.953 12.1454 103.487 12.0841C102.902 12.0161 102.313 11.9851 101.723 11.9913C100.105 11.9913 98.8668 12.5245 98.0084 13.5909C97.104 14.8019 96.6491 16.2898 96.7218 17.7995V17.8Z" fill="#042818"/>
<path d="M131.336 18.5304C131.353 19.943 131.129 21.3483 130.674 22.6856C130.272 23.8683 129.634 24.9569 128.798 25.8849C127.982 26.7727 126.984 27.475 125.873 27.9442C124.681 28.4449 123.398 28.6952 122.104 28.6797C120.818 28.6965 119.542 28.4465 118.358 27.9456C117.254 27.4727 116.264 26.7707 115.453 25.8863C114.615 24.9561 113.972 23.8686 113.559 22.6871C113.091 21.3524 112.861 19.946 112.879 18.5318C112.86 17.1237 113.09 15.7234 113.559 14.3956C113.976 13.2176 114.627 12.1358 115.471 11.2149C116.29 10.3335 117.287 9.63692 118.397 9.17187C119.574 8.68412 120.837 8.44022 122.111 8.45494C123.391 8.44163 124.66 8.68543 125.843 9.17187C126.956 9.63083 127.955 10.3282 128.769 11.2149C129.603 12.1403 130.246 13.2211 130.662 14.3956C131.128 15.7235 131.356 17.1232 131.336 18.5304ZM126.776 18.5304C126.776 16.6186 126.366 15.1049 125.544 13.9893C125.136 13.468 124.614 13.0466 124.018 12.7567C123.423 12.4669 122.769 12.3163 122.107 12.3163C121.444 12.3163 120.79 12.4669 120.195 12.7567C119.599 13.0466 119.077 13.468 118.669 13.9893C117.847 15.1037 117.436 16.6174 117.437 18.5304C117.437 20.4673 117.847 21.9995 118.669 23.1272C119.074 23.6535 119.595 24.0796 120.191 24.3729C120.787 24.6661 121.442 24.8186 122.107 24.8186C122.771 24.8186 123.426 24.6661 124.022 24.3729C124.618 24.0796 125.139 23.6535 125.544 23.1272C126.365 21.9995 126.776 20.4673 126.776 18.5304H126.776Z" fill="#042818"/>
<path d="M135.931 10.3796C135.931 10.1438 136.011 9.91488 136.157 9.72989C136.303 9.54489 136.507 9.41468 136.737 9.36037C137.453 9.19074 138.3 9.02745 139.277 8.87051C140.786 8.63968 142.311 8.52898 143.837 8.53944C145.178 8.5006 146.513 8.71907 147.771 9.183C148.751 9.55879 149.618 10.1792 150.29 10.985C150.937 11.804 151.39 12.7596 151.614 13.7794C151.88 14.9555 152.01 16.1585 152 17.3645V27.6307C152 27.7751 151.942 27.9135 151.84 28.0156C151.738 28.1176 151.6 28.1749 151.455 28.1749H148.095C147.95 28.1749 147.812 28.1176 147.71 28.0156C147.608 27.9135 147.55 27.7751 147.55 27.6307V18.0628C147.562 17.1822 147.495 16.3023 147.348 15.4338C147.25 14.8068 147.025 14.2064 146.687 13.6693C146.382 13.2177 145.946 12.871 145.437 12.6766C144.818 12.453 144.164 12.3471 143.507 12.3641C142.917 12.3659 142.327 12.4028 141.742 12.4746C141.129 12.5483 140.676 12.6102 140.382 12.6603V27.6331C140.382 27.7774 140.324 27.9158 140.222 28.0178C140.12 28.1199 139.982 28.1773 139.837 28.1773H136.477C136.332 28.1773 136.194 28.1199 136.092 28.0178C135.99 27.9158 135.932 27.7774 135.932 27.6331L135.931 10.3796Z" fill="#042818"/>
<path d="M4.5128 0H24.0675C25.2644 0 26.4122 0.475454 27.2585 1.32177C28.1048 2.16808 28.5803 3.31593 28.5803 4.5128V24.0675C28.5803 25.2644 28.1048 26.4122 27.2585 27.2585C26.4122 28.1048 25.2644 28.5803 24.0675 28.5803H4.5128C3.31593 28.5803 2.16808 28.1048 1.32177 27.2585C0.475454 26.4122 0 25.2644 0 24.0675V4.5128C0 3.31593 0.475454 2.16808 1.32177 1.32177C2.16808 0.475454 3.31593 0 4.5128 0Z" fill="url(#paint0_linear_64_7893)"/>
<path d="M13.3271 6.71698V22.8064C13.3271 22.8064 13.3271 22.8101 13.3271 22.811C13.3272 22.8146 13.3263 22.8182 13.3243 22.8212C13.3211 22.8289 13.3157 22.8355 13.3087 22.8401C13.3018 22.8447 13.2937 22.8472 13.2853 22.8472H13.023C12.0763 22.8479 11.1388 22.6618 10.2641 22.2998C9.38942 21.9378 8.59466 21.4069 7.92531 20.7375C7.25596 20.068 6.72515 19.2732 6.36325 18.3984C6.00134 17.5237 5.81543 16.5862 5.81616 15.6395V3.52473C5.81604 3.43172 5.83426 3.3396 5.86976 3.25364C5.90527 3.16768 5.95738 3.08956 6.0231 3.02375C6.08882 2.95795 6.16687 2.90573 6.25278 2.87011C6.3387 2.83449 6.43079 2.81616 6.5238 2.81616H9.42771C10.4621 2.81641 11.454 3.22751 12.1852 3.95904C12.9165 4.69057 13.3272 5.68262 13.3271 6.71698Z" fill="url(#paint1_linear_64_7893)"/>
<path d="M22.7651 17.6746V22.7358C22.765 23.1336 22.6866 23.5274 22.5343 23.8948C22.3821 24.2623 22.1589 24.5961 21.8776 24.8773C21.5963 25.1585 21.2624 25.3816 20.8949 25.5338C20.5274 25.6859 20.1335 25.7642 19.7358 25.7641H16.1233C16.0849 25.7643 16.0469 25.7568 16.0114 25.7422C15.9759 25.7276 15.9437 25.7061 15.9165 25.6791C15.8893 25.652 15.8678 25.6198 15.8531 25.5843C15.8384 25.5489 15.8308 25.5109 15.8308 25.4725V18.5429C16.5852 17.526 17.5749 16.7071 18.7152 16.1567C19.8555 15.6062 21.1123 15.3404 22.3778 15.3822C22.6354 16.119 22.7664 16.8941 22.7651 17.6746Z" fill="url(#paint2_linear_64_7893)"/>
<path d="M22.3769 15.3823C21.9137 14.0619 21.0622 12.9124 19.9341 12.0846C18.806 11.2568 17.454 10.7894 16.0555 10.7436C15.9803 10.7436 15.906 10.7483 15.8317 10.752C13.6683 10.8549 11.5894 11.623 9.87869 12.9514C8.16803 14.2798 6.90902 16.1037 6.27353 18.1743C6.78929 19.5476 7.7117 20.7309 8.91762 21.5662C10.1235 22.4015 11.5556 22.849 13.0225 22.8491H13.2853C13.2937 22.849 13.3018 22.8466 13.3087 22.8419C13.3157 22.8373 13.3211 22.8308 13.3243 22.8231C13.3263 22.8201 13.3272 22.8165 13.3271 22.8129C13.3271 22.8129 13.3271 22.8101 13.3271 22.8083C13.9305 20.8135 15.1127 19.0429 16.7239 17.7211C18.3351 16.3993 20.3027 15.5859 22.3769 15.3841V15.3823Z" fill="url(#paint3_linear_64_7893)"/>
</g>
<defs>
<linearGradient id="paint0_linear_64_7893" x1="14.2901" y1="28.5803" x2="14.2901" y2="0" gradientUnits="userSpaceOnUse">
<stop stop-color="#FFC444"/>
<stop offset="1" stop-color="#F36F56"/>
</linearGradient>
<linearGradient id="paint1_linear_64_7893" x1="9.57165" y1="22.8473" x2="9.57165" y2="2.81616" gradientUnits="userSpaceOnUse">
<stop stop-color="#E9E9E9"/>
<stop offset="0.191" stop-color="#F1F1F1"/>
<stop offset="0.551" stop-color="#FBFBFB"/>
<stop offset="1" stop-color="white"/>
</linearGradient>
<linearGradient id="paint2_linear_64_7893" x1="19.2979" y1="25.7641" x2="19.2979" y2="15.378" gradientUnits="userSpaceOnUse">
<stop stop-color="#E9E9E9"/>
<stop offset="0.191" stop-color="#F1F1F1"/>
<stop offset="0.551" stop-color="#FBFBFB"/>
<stop offset="1" stop-color="white"/>
</linearGradient>
<linearGradient id="paint3_linear_64_7893" x1="9.68744" y1="20.3554" x2="15.432" y2="10.5138" gradientUnits="userSpaceOnUse">
<stop stop-color="#E9E9E9"/>
<stop offset="0.667" stop-color="#F4F4F4"/>
</linearGradient>
<clipPath id="clip0_64_7893">
<rect width="152" height="34.8241" fill="white"/>
</clipPath>
</defs>
</svg>
