<svg width="29" height="30" viewBox="0 0 29 30" fill="none" xmlns="http://www.w3.org/2000/svg">
<path d="M4.5128 0.709961H24.0675C25.2644 0.709961 26.4122 1.18542 27.2585 2.03173C28.1048 2.87804 28.5803 4.02589 28.5803 5.22276V24.7775C28.5803 25.9743 28.1048 27.1222 27.2585 27.9685C26.4122 28.8148 25.2644 29.2903 24.0675 29.2903H4.5128C3.31593 29.2903 2.16808 28.8148 1.32177 27.9685C0.475454 27.1222 0 25.9743 0 24.7775V5.22276C0 4.02589 0.475454 2.87804 1.32177 2.03173C2.16808 1.18542 3.31593 0.709961 4.5128 0.709961Z" fill="url(#paint0_linear_20_7895)"/>
<path d="M13.3271 7.42694V23.5164C13.3271 23.5164 13.3271 23.5201 13.3271 23.521C13.3272 23.5246 13.3263 23.5282 13.3243 23.5312C13.3211 23.5389 13.3157 23.5454 13.3087 23.55C13.3018 23.5547 13.2937 23.5572 13.2853 23.5572H13.023C12.0763 23.5578 11.1388 23.3718 10.2641 23.0098C9.38942 22.6478 8.59466 22.1169 7.92531 21.4474C7.25596 20.778 6.72515 19.9832 6.36325 19.1084C6.00134 18.2337 5.81543 17.2961 5.81616 16.3495V4.23469C5.81604 4.14168 5.83426 4.04956 5.86976 3.9636C5.90527 3.87764 5.95738 3.79952 6.0231 3.73372C6.08882 3.66791 6.16687 3.61569 6.25278 3.58007C6.3387 3.54445 6.43079 3.52612 6.5238 3.52612H9.42771C10.4621 3.52637 11.454 3.93747 12.1852 4.669C12.9165 5.40053 13.3272 6.39258 13.3271 7.42694Z" fill="url(#paint1_linear_20_7895)"/>
<path d="M22.7651 18.3845V23.4457C22.765 23.8435 22.6866 24.2373 22.5343 24.6048C22.3821 24.9722 22.1589 25.3061 21.8776 25.5873C21.5963 25.8685 21.2624 26.0915 20.8949 26.2437C20.5274 26.3958 20.1335 26.4741 19.7358 26.4741H16.1233C16.0849 26.4742 16.0469 26.4667 16.0114 26.4521C15.9759 26.4375 15.9437 26.4161 15.9165 26.389C15.8893 26.3619 15.8678 26.3297 15.8531 26.2943C15.8384 26.2588 15.8308 26.2208 15.8308 26.1825V19.2528C16.5852 18.2359 17.5749 17.4171 18.7152 16.8666C19.8555 16.3161 21.1123 16.0504 22.3778 16.0922C22.6354 16.8289 22.7664 17.604 22.7651 18.3845Z" fill="url(#paint2_linear_20_7895)"/>
<path d="M22.3769 16.0923C21.9137 14.7719 21.0622 13.6224 19.9341 12.7946C18.806 11.9668 17.454 11.4993 16.0555 11.4536C15.9803 11.4536 15.906 11.4583 15.8317 11.462C13.6683 11.5649 11.5894 12.333 9.87869 13.6614C8.16803 14.9898 6.90902 16.8137 6.27353 18.8843C6.78929 20.2576 7.7117 21.4408 8.91762 22.2762C10.1235 23.1115 11.5556 23.559 13.0225 23.5591H13.2853C13.2937 23.559 13.3018 23.5565 13.3087 23.5519C13.3157 23.5473 13.3211 23.5408 13.3243 23.5331C13.3263 23.5301 13.3272 23.5265 13.3271 23.5229C13.3271 23.5229 13.3271 23.5201 13.3271 23.5183C13.9305 21.5235 15.1127 19.7529 16.7239 18.4311C18.3351 17.1093 20.3027 16.2959 22.3769 16.0941V16.0923Z" fill="url(#paint3_linear_20_7895)"/>
<defs>
<linearGradient id="paint0_linear_20_7895" x1="14.2901" y1="29.2903" x2="14.2901" y2="0.709961" gradientUnits="userSpaceOnUse">
<stop stop-color="#FFC444"/>
<stop offset="1" stop-color="#F36F56"/>
</linearGradient>
<linearGradient id="paint1_linear_20_7895" x1="9.57165" y1="23.5572" x2="9.57165" y2="3.52612" gradientUnits="userSpaceOnUse">
<stop stop-color="#E9E9E9"/>
<stop offset="0.191" stop-color="#F1F1F1"/>
<stop offset="0.551" stop-color="#FBFBFB"/>
<stop offset="1" stop-color="white"/>
</linearGradient>
<linearGradient id="paint2_linear_20_7895" x1="19.2979" y1="26.4741" x2="19.2979" y2="16.0879" gradientUnits="userSpaceOnUse">
<stop stop-color="#E9E9E9"/>
<stop offset="0.191" stop-color="#F1F1F1"/>
<stop offset="0.551" stop-color="#FBFBFB"/>
<stop offset="1" stop-color="white"/>
</linearGradient>
<linearGradient id="paint3_linear_20_7895" x1="9.68744" y1="21.0654" x2="15.432" y2="11.2238" gradientUnits="userSpaceOnUse">
<stop stop-color="#E9E9E9"/>
<stop offset="0.667" stop-color="#F4F4F4"/>
</linearGradient>
</defs>
</svg>
